<mxfile host="app.diagrams.net" modified="2023-06-27T14:54:16.175Z" agent="Mozilla/5.0 (Windows NT 10.0; Win64; x64) AppleWebKit/537.36 (KHTML, like Gecko) Chrome/114.0.0.0 Safari/537.36 Edg/114.0.1823.58" etag="5jfj8M3oM0QvYrdRfli7" version="21.5.0" type="device">
  <diagram name="Page-1" id="9xk14Mk3i9GadenGdefy">
    <mxGraphModel dx="1379" dy="788" grid="1" gridSize="10" guides="1" tooltips="1" connect="1" arrows="1" fold="1" page="1" pageScale="1" pageWidth="1100" pageHeight="850" background="#CCCCCC" math="0" shadow="0">
      <root>
        <mxCell id="0" />
        <mxCell id="1" parent="0" />
        <mxCell id="JAouT1cJAA9CkGvg4sqI-2" value="" style="endArrow=baseDash;html=1;edgeStyle=orthogonalEdgeStyle;rounded=0;strokeWidth=3;startArrow=baseDash;startFill=0;endFill=0;endSize=20;startSize=20;" parent="1" edge="1">
          <mxGeometry relative="1" as="geometry">
            <mxPoint x="200" y="121" as="sourcePoint" />
            <mxPoint x="1000" y="121" as="targetPoint" />
            <Array as="points">
              <mxPoint x="600" y="121" />
              <mxPoint x="600" y="121" />
            </Array>
          </mxGeometry>
        </mxCell>
        <mxCell id="JAouT1cJAA9CkGvg4sqI-3" value="0.0" style="edgeLabel;resizable=0;html=1;align=left;verticalAlign=bottom;fontSize=18;labelBackgroundColor=none;" parent="JAouT1cJAA9CkGvg4sqI-2" connectable="0" vertex="1">
          <mxGeometry x="-1" relative="1" as="geometry">
            <mxPoint x="-14" y="-18" as="offset" />
          </mxGeometry>
        </mxCell>
        <mxCell id="JAouT1cJAA9CkGvg4sqI-4" value="1.0" style="edgeLabel;resizable=0;html=1;align=right;verticalAlign=bottom;fontSize=18;labelBackgroundColor=none;" parent="JAouT1cJAA9CkGvg4sqI-2" connectable="0" vertex="1">
          <mxGeometry x="1" relative="1" as="geometry">
            <mxPoint x="13" y="-17" as="offset" />
          </mxGeometry>
        </mxCell>
        <mxCell id="JAouT1cJAA9CkGvg4sqI-8" value="" style="orthogonalLoop=1;jettySize=auto;html=1;rounded=0;strokeWidth=2;endArrow=baseDash;endFill=0;startArrow=baseDash;startFill=0;endSize=12;targetPerimeterSpacing=0;startSize=12;sourcePerimeterSpacing=0;" parent="1" edge="1">
          <mxGeometry width="80" relative="1" as="geometry">
            <mxPoint x="520" y="360" as="sourcePoint" />
            <mxPoint x="1000" y="360" as="targetPoint" />
          </mxGeometry>
        </mxCell>
        <mxCell id="JAouT1cJAA9CkGvg4sqI-9" value="0.4" style="text;strokeColor=none;align=center;fillColor=none;html=1;verticalAlign=middle;whiteSpace=wrap;rounded=0;" parent="1" vertex="1">
          <mxGeometry x="490" y="320" width="60" height="30" as="geometry" />
        </mxCell>
        <mxCell id="JAouT1cJAA9CkGvg4sqI-15" value="" style="orthogonalLoop=1;jettySize=auto;html=1;rounded=0;strokeWidth=2;endArrow=baseDash;endFill=0;startArrow=baseDash;startFill=0;endSize=12;targetPerimeterSpacing=0;startSize=12;sourcePerimeterSpacing=0;" parent="1" edge="1">
          <mxGeometry width="80" relative="1" as="geometry">
            <mxPoint x="400" y="280" as="sourcePoint" />
            <mxPoint x="560" y="280" as="targetPoint" />
          </mxGeometry>
        </mxCell>
        <mxCell id="JAouT1cJAA9CkGvg4sqI-16" value="0.25" style="text;strokeColor=none;align=center;fillColor=none;html=1;verticalAlign=middle;whiteSpace=wrap;rounded=0;" parent="1" vertex="1">
          <mxGeometry x="370" y="240" width="60" height="30" as="geometry" />
        </mxCell>
        <mxCell id="JAouT1cJAA9CkGvg4sqI-17" value="0.4" style="text;strokeColor=none;align=center;fillColor=none;html=1;verticalAlign=middle;whiteSpace=wrap;rounded=0;" parent="1" vertex="1">
          <mxGeometry x="530" y="240" width="60" height="30" as="geometry" />
        </mxCell>
        <mxCell id="JAouT1cJAA9CkGvg4sqI-20" value="" style="orthogonalLoop=1;jettySize=auto;html=1;rounded=0;strokeWidth=2;endArrow=baseDash;endFill=0;startArrow=baseDash;startFill=0;endSize=12;targetPerimeterSpacing=0;startSize=12;sourcePerimeterSpacing=0;" parent="1" edge="1">
          <mxGeometry width="80" relative="1" as="geometry">
            <mxPoint x="200" y="520" as="sourcePoint" />
            <mxPoint x="1000" y="520" as="targetPoint" />
          </mxGeometry>
        </mxCell>
        <mxCell id="JAouT1cJAA9CkGvg4sqI-21" value="0.0" style="text;strokeColor=none;align=center;fillColor=none;html=1;verticalAlign=middle;whiteSpace=wrap;rounded=0;" parent="1" vertex="1">
          <mxGeometry x="170" y="480" width="60" height="30" as="geometry" />
        </mxCell>
        <mxCell id="JAouT1cJAA9CkGvg4sqI-22" value="1.0" style="text;strokeColor=none;align=center;fillColor=none;html=1;verticalAlign=middle;whiteSpace=wrap;rounded=0;" parent="1" vertex="1">
          <mxGeometry x="970" y="480" width="60" height="30" as="geometry" />
        </mxCell>
        <mxCell id="JAouT1cJAA9CkGvg4sqI-25" value="" style="orthogonalLoop=1;jettySize=auto;html=1;rounded=0;strokeWidth=2;endArrow=baseDash;endFill=0;startArrow=baseDash;startFill=0;endSize=12;targetPerimeterSpacing=0;startSize=12;sourcePerimeterSpacing=0;" parent="1" edge="1">
          <mxGeometry width="80" relative="1" as="geometry">
            <mxPoint x="200" y="200" as="sourcePoint" />
            <mxPoint x="600" y="196" as="targetPoint" />
          </mxGeometry>
        </mxCell>
        <mxCell id="JAouT1cJAA9CkGvg4sqI-26" value="0.0" style="text;strokeColor=none;align=center;fillColor=none;html=1;verticalAlign=middle;whiteSpace=wrap;rounded=0;" parent="1" vertex="1">
          <mxGeometry x="170" y="160" width="60" height="30" as="geometry" />
        </mxCell>
        <mxCell id="JAouT1cJAA9CkGvg4sqI-27" value="0.5" style="text;strokeColor=none;align=center;fillColor=none;html=1;verticalAlign=middle;whiteSpace=wrap;rounded=0;" parent="1" vertex="1">
          <mxGeometry x="570" y="160" width="60" height="30" as="geometry" />
        </mxCell>
        <mxCell id="JAouT1cJAA9CkGvg4sqI-30" value="" style="orthogonalLoop=1;jettySize=auto;html=1;rounded=0;strokeWidth=2;endArrow=baseDash;endFill=0;startArrow=baseDash;startFill=0;endSize=12;targetPerimeterSpacing=0;startSize=12;sourcePerimeterSpacing=0;" parent="1" edge="1">
          <mxGeometry width="80" relative="1" as="geometry">
            <mxPoint x="920" y="440" as="sourcePoint" />
            <mxPoint x="1000" y="440" as="targetPoint" />
          </mxGeometry>
        </mxCell>
        <mxCell id="JAouT1cJAA9CkGvg4sqI-31" value="0.9" style="text;strokeColor=none;align=center;fillColor=none;html=1;verticalAlign=middle;whiteSpace=wrap;rounded=0;" parent="1" vertex="1">
          <mxGeometry x="890" y="395" width="60" height="30" as="geometry" />
        </mxCell>
        <mxCell id="JAouT1cJAA9CkGvg4sqI-33" value="1.0" style="text;strokeColor=none;align=center;fillColor=none;html=1;verticalAlign=middle;whiteSpace=wrap;rounded=0;" parent="1" vertex="1">
          <mxGeometry x="970" y="400" width="60" height="30" as="geometry" />
        </mxCell>
        <mxCell id="JAouT1cJAA9CkGvg4sqI-34" value="1.0" style="text;strokeColor=none;align=center;fillColor=none;html=1;verticalAlign=middle;whiteSpace=wrap;rounded=0;" parent="1" vertex="1">
          <mxGeometry x="970" y="320" width="60" height="30" as="geometry" />
        </mxCell>
        <mxCell id="JAouT1cJAA9CkGvg4sqI-35" value="Scale xy2" style="text;strokeColor=none;align=center;fillColor=none;html=1;verticalAlign=middle;whiteSpace=wrap;rounded=0;fontSize=18;" parent="1" vertex="1">
          <mxGeometry x="40" y="425" width="100" height="30" as="geometry" />
        </mxCell>
        <mxCell id="JAouT1cJAA9CkGvg4sqI-36" value="width ( scale x )" style="text;strokeColor=none;align=center;fillColor=none;html=1;verticalAlign=middle;whiteSpace=wrap;rounded=0;fontSize=18;" parent="1" vertex="1">
          <mxGeometry x="40" y="264" width="130" height="30" as="geometry" />
        </mxCell>
        <mxCell id="JAouT1cJAA9CkGvg4sqI-37" value="height (scale y )" style="text;strokeColor=none;align=center;fillColor=none;html=1;verticalAlign=middle;whiteSpace=wrap;rounded=0;fontSize=18;" parent="1" vertex="1">
          <mxGeometry x="40" y="340" width="130" height="30" as="geometry" />
        </mxCell>
        <mxCell id="JAouT1cJAA9CkGvg4sqI-38" value="scale xy" style="text;strokeColor=none;align=center;fillColor=none;html=1;verticalAlign=middle;whiteSpace=wrap;rounded=0;fontSize=18;" parent="1" vertex="1">
          <mxGeometry x="26" y="180" width="93" height="30" as="geometry" />
        </mxCell>
        <mxCell id="JAouT1cJAA9CkGvg4sqI-39" value="translation (move 2 dots )" style="text;strokeColor=none;align=left;fillColor=none;html=1;verticalAlign=middle;whiteSpace=wrap;rounded=0;fontSize=18;" parent="1" vertex="1">
          <mxGeometry x="40" y="490" width="120" height="70" as="geometry" />
        </mxCell>
      </root>
    </mxGraphModel>
  </diagram>
</mxfile>
